<svg xmlns="http://www.w3.org/2000/svg" viewBox="0 0 1702.79 617.51"><defs><style>.cls-1{fill:#35b4bc;}</style></defs><title>logo-diamond-1</title><g id="Horizontal"><g id="LOGO"><g id="Logotipo"><path class="cls-1" d="M1247.36,277.57h39.27a14.23,14.23,0,0,1,9.21,3.11,9.43,9.43,0,0,1,3.92,7.59v20.18q0,8.94-7.83,14.39-7.37,5.15-18.37,5.14h-8.42V355.9h-17.78Zm17.78,14.49v21.43h8.42q8.42,0,8.41-5V292.06Z"/><path class="cls-1" d="M1309.55,355.9V277.57h17.79V355.9Z"/><path class="cls-1" d="M1354.49,355.9h-18l13.5-39.16-13.5-39.17h18q3.71,10.74,9.43,31.9,5.71-21.17,9.42-31.9h18.1l-13.5,39.17,13.5,39.16h-18.1q-3.77-10.78-9.42-31.9Q1358.19,345.11,1354.49,355.9Z"/><path class="cls-1" d="M1417.38,341.41H1447V355.9h-47.43V277.57H1447v14.49h-29.64v17.41H1442V324h-24.66Z"/><path class="cls-1" d="M1456.12,355.9V277.57h17.79v63.84h24.67V355.9Z"/><path class="cls-1" d="M1539.07,292.06h-16.83v12.36q0,5,8.41,5.05,11,0,18.37,5.14,7.83,5.46,7.84,14.44V345.2a9.47,9.47,0,0,1-3.92,7.6,14.32,14.32,0,0,1-9.21,3.1h-26.15a14.3,14.3,0,0,1-9.21-3.1,9.47,9.47,0,0,1-3.92-7.6V329.42h17.79v12h16.83V329.05q0-5.06-8.42-5.05-11,0-18.36-5.14-7.85-5.46-7.84-14.44V288.27a9.43,9.43,0,0,1,3.92-7.59,14.25,14.25,0,0,1,9.21-3.11h26.15a14.27,14.27,0,0,1,9.21,3.11,9.43,9.43,0,0,1,3.92,7.59V304h-17.79Z"/><path d="M726.9,355.9V277.57h27a66.1,66.1,0,0,1,14,1.12,26.69,26.69,0,0,1,11.49,5.61,31.92,31.92,0,0,1,9.28,13.39,52.49,52.49,0,0,1,3.07,18.62,55,55,0,0,1-2.08,15.81,38.42,38.42,0,0,1-5.35,11.41,28.29,28.29,0,0,1-7.14,7.11,29.21,29.21,0,0,1-9.35,3.92,53.42,53.42,0,0,1-12.59,1.34Zm10.37-9.25H754a40.72,40.72,0,0,0,12.16-1.44,17.36,17.36,0,0,0,7-4.06,24.79,24.79,0,0,0,5.74-9.91A48.48,48.48,0,0,0,781,316.15q0-12.28-4-18.89t-9.8-8.84q-4.17-1.6-13.42-1.61H737.27Z"/><path d="M807.71,355.9V277.57h10.37V355.9Z"/><path d="M827.76,355.9l30.09-78.33H869l32.07,78.33H889.28l-9.14-23.72H847.37l-8.6,23.72Zm22.61-32.17h26.56L868.75,302q-3.74-9.89-5.56-16.24a98.62,98.62,0,0,1-4.22,15Z"/><path d="M909.05,355.9V277.57h15.61L943.21,333q2.56,7.75,3.74,11.59,1.34-4.28,4.17-12.55l18.76-54.5h14V355.9h-10V290.34L951.06,355.9h-9.35l-22.66-66.68V355.9Z"/><path d="M997.4,317.74q0-18.84,10.48-29.51t27-10.66a38.55,38.55,0,0,1,19.57,5,33.26,33.26,0,0,1,13.28,14,44,44,0,0,1,4.57,20.31,43.46,43.46,0,0,1-4.81,20.61,32.25,32.25,0,0,1-13.63,13.75,40,40,0,0,1-19,4.68,38,38,0,0,1-19.78-5.17,33.64,33.64,0,0,1-13.2-14.09A41.54,41.54,0,0,1,997.4,317.74Zm10.69.85q0,13.91,7.62,21.92a26.9,26.9,0,0,0,38.38-.08q7.56-8.08,7.56-22.95a39,39,0,0,0-3.23-16.41A24.59,24.59,0,0,0,1049,290.2a26,26,0,0,0-14-3.86,26.79,26.79,0,0,0-19,7.43Q1008.1,301.21,1008.09,318.59Z"/><path d="M1085.59,355.9V277.57h10.64l41.15,61.5v-61.5h9.95V355.9h-10.64l-41.16-61.55V355.9Z"/><path d="M1164.75,355.9V277.57h27a66.1,66.1,0,0,1,14,1.12,26.69,26.69,0,0,1,11.49,5.61,31.92,31.92,0,0,1,9.28,13.39,52.72,52.72,0,0,1,3.07,18.62,54.6,54.6,0,0,1-2.09,15.81,38.42,38.42,0,0,1-5.34,11.41,28.29,28.29,0,0,1-7.14,7.11,29.21,29.21,0,0,1-9.35,3.92A53.42,53.42,0,0,1,1193,355.9Zm10.37-9.25h16.73a40.72,40.72,0,0,0,12.16-1.44,17.36,17.36,0,0,0,7-4.06,24.67,24.67,0,0,0,5.74-9.91,48.48,48.48,0,0,0,2.06-15.09q0-12.28-4-18.89t-9.8-8.84q-4.17-1.6-13.42-1.61h-16.46Z"/></g><g id="Isotipo"><rect class="cls-1" x="573.31" y="278.7" width="7.07" height="7.07"/><rect class="cls-1" x="569.78" y="253.74" width="7.07" height="7.07"/><rect class="cls-1" x="540.94" y="226.39" width="7.07" height="7.07"/><rect class="cls-1" x="529.5" y="201.2" width="7.07" height="7.07"/><rect class="cls-1" x="526.81" y="180.01" width="7.07" height="7.07"/><rect class="cls-1" x="549.64" y="187.08" width="7.07" height="7.07"/><rect class="cls-1" x="614.92" y="303.66" width="7.07" height="7.07"/><rect class="cls-1" x="553.17" y="323.07" width="7.07" height="7.07"/><rect class="cls-1" x="533.04" y="376.98" width="7.07" height="7.07"/><rect class="cls-1" x="537.4" y="397.73" width="7.07" height="7.07"/><rect class="cls-1" x="567.38" y="303.66" width="7.07" height="7.07"/><rect class="cls-1" x="595.93" y="402.4" width="7.07" height="7.07"/><rect class="cls-1" x="602.85" y="371.57" width="7.07" height="7.07"/><rect class="cls-1" x="567.38" y="364.5" width="7.07" height="7.07"/><rect class="cls-1" x="585.32" y="319.53" width="7.07" height="7.07"/><rect class="cls-1" x="570.92" y="331.81" width="7.07" height="7.07"/><rect class="cls-1" x="585.32" y="346.65" width="7.07" height="7.07"/><rect class="cls-1" x="656.13" y="371.57" width="7.07" height="7.07"/><rect class="cls-1" x="513.83" y="405.93" width="7.07" height="7.07"/><rect class="cls-1" x="485.53" y="432.04" width="7.07" height="7.07"/><rect class="cls-1" x="457.89" y="489.45" width="7.07" height="7.07"/><rect class="cls-1" x="424.82" y="492.99" width="7.07" height="7.07"/><rect class="cls-1" x="474.72" y="470.72" width="7.07" height="7.07"/><rect class="cls-1" x="464.96" y="446.18" width="7.07" height="7.07"/><rect class="cls-1" x="513.83" y="466.48" width="7.07" height="7.07"/><rect class="cls-1" x="495.05" y="453.25" width="7.07" height="7.07"/><rect class="cls-1" x="555.64" y="456.79" width="7.07" height="7.07"/><rect class="cls-1" x="553.17" y="424.97" width="7.07" height="7.07"/><rect class="cls-1" x="592.4" y="298.76" width="7.07" height="7.07"/><rect class="cls-1" x="510.3" y="390.66" width="7.07" height="7.07"/><rect class="cls-1" x="508.36" y="368.03" width="7.07" height="7.07"/><rect class="cls-1" x="546.1" y="339.5" width="7.07" height="7.07"/><rect class="cls-1" x="548.01" y="361.75" width="7.07" height="7.07"/><rect class="cls-1" x="526.81" y="351.14" width="7.07" height="7.07"/><rect class="cls-1" x="592.4" y="429.48" width="7.07" height="7.07"/><rect class="cls-1" x="563.85" y="390.66" width="7.07" height="7.07"/><rect class="cls-1" x="623.92" y="384.05" width="7.07" height="7.07"/><rect class="cls-1" x="473.14" y="411.73" width="7.07" height="7.07"/><rect class="cls-1" x="517.37" y="432.04" width="7.07" height="7.07"/><rect class="cls-1" x="495.05" y="414.36" width="7.07" height="7.07"/><rect class="cls-1" x="487.01" y="394.19" width="7.07" height="7.07"/><rect class="cls-1" x="454.36" y="425.94" width="7.07" height="7.07"/><rect class="cls-1" x="421.29" y="463.65" width="7.07" height="7.07"/><rect class="cls-1" x="440.21" y="446.39" width="7.07" height="7.07"/><rect class="cls-1" x="449.78" y="467.19" width="7.07" height="7.07"/><rect class="cls-1" x="389.6" y="502.89" width="7.07" height="7.07"/><rect class="cls-1" x="402.12" y="482.38" width="7.07" height="7.07"/><rect class="cls-1" x="638.06" y="344.21" width="7.07" height="7.07"/><rect class="cls-1" x="606.39" y="340.67" width="7.07" height="7.07"/><rect class="cls-1" x="623.92" y="253.74" width="7.07" height="7.07"/><rect class="cls-1" x="652.6" y="298.76" width="7.07" height="7.07"/><rect class="cls-1" x="630.99" y="323.07" width="7.07" height="7.07"/><rect class="cls-1" x="649.06" y="204.73" width="7.07" height="7.07"/><rect class="cls-1" x="634.52" y="183.54" width="7.07" height="7.07"/><rect class="cls-1" x="689.43" y="175.82" width="7.07" height="7.07"/><rect class="cls-1" x="623.92" y="118.84" width="7.07" height="7.07"/><rect class="cls-1" x="649.06" y="151.14" width="7.07" height="7.07"/><rect class="cls-1" x="673.81" y="243.14" width="7.07" height="7.07"/><rect class="cls-1" x="699.66" y="219.32" width="7.07" height="7.07"/><rect class="cls-1" x="663.21" y="271.7" width="7.07" height="7.07"/><rect class="cls-1" x="627.45" y="278.77" width="7.07" height="7.07"/><rect class="cls-1" x="692.96" y="291.69" width="7.07" height="7.07"/><rect class="cls-1" x="677.35" y="331.81" width="7.07" height="7.07"/><rect class="cls-1" x="592.4" y="250.21" width="7.07" height="7.07"/><rect class="cls-1" x="606.39" y="271.7" width="7.07" height="7.07"/><rect class="cls-1" x="558.23" y="208.27" width="7.07" height="7.07"/><rect class="cls-1" x="563.85" y="232.02" width="7.07" height="7.07"/><rect class="cls-1" x="570.92" y="175.82" width="7.07" height="7.07"/><rect class="cls-1" x="540.94" y="161.75" width="7.07" height="7.07"/><rect class="cls-1" x="506.23" y="167.66" width="7.07" height="7.07"/><rect class="cls-1" x="526.81" y="141.99" width="7.07" height="7.07"/><rect class="cls-1" x="478.25" y="147.61" width="7.07" height="7.07"/><rect class="cls-1" x="570.92" y="128.79" width="7.07" height="7.07"/><rect class="cls-1" x="575.91" y="151.14" width="7.07" height="7.07"/><rect class="cls-1" x="592.24" y="208.27" width="7.07" height="7.07"/><rect class="cls-1" x="602.85" y="168.75" width="7.07" height="7.07"/><rect class="cls-1" x="602.85" y="232.02" width="7.07" height="7.07"/><rect class="cls-1" x="611.39" y="204.73" width="7.07" height="7.07"/><rect class="cls-1" x="638.06" y="232.65" width="7.07" height="7.07"/><polygon class="cls-1" points="487.33 171.19 363.02 171.19 443.83 279.96 487.33 171.19"/><polygon class="cls-1" points="344.67 171.19 220.36 171.19 263.87 279.96 344.67 171.19"/><polygon class="cls-1" points="272.81 302.3 353.85 504.9 434.89 302.3 272.81 302.3"/><polygon class="cls-1" points="431.12 287.57 353.85 183.54 276.57 287.57 431.12 287.57"/><polygon class="cls-1" points="148.52 302.3 339.85 509.57 256.94 302.3 148.52 302.3"/><polygon class="cls-1" points="207.76 179.36 145.93 287.57 251.05 287.57 207.76 179.36"/><path class="cls-1" d="M561.77,287.57,499.93,179.36,456.65,287.57Zm-27.9-24.4h7.07v7.07h-7.07Zm-16.5-27.61h7.07v7.07h-7.07Zm-11.14,39.67h7.07v7.07h-7.07Zm-7.65-74h7.07v7.07h-7.07Zm-3.53,49h7.07v7.07h-7.07Zm-7.72-24.63h7.08v7.07h-7.08ZM481.79,268V275h-7.07V268Z"/><path class="cls-1" d="M450.76,302.3,367.85,509.57,559.18,302.3ZM415.05,446.18H408v-7.07h7.07Zm13.31-41.38h-7.07v-7.07h7.07Zm22.46-39.52h-7.07v-7.07h7.07Zm9.57,32.45h-7.07v-7.07h7.07ZM463,320.09h-7.07V313H463Zm19.88,38.82h-7.07v-7.07h7.07Zm9.77-30.51h-7.07v-7.07h7.07Zm19.29,15.81h-7.07v-7.07h7.07ZM526,314.26v-7.07H533v7.07Z"/></g></g></g></svg>